<?xml version="1.0" encoding="utf-8"?>
<svg xmlns="http://www.w3.org/2000/svg" xmlns:xlink="http://www.w3.org/1999/xlink" style="margin: auto; background: rgba(0, 0, 0, 0) none repeat scroll 0% 0%; display: block; shape-rendering: auto;" width="171px" height="171px" viewBox="0 0 100 100" preserveAspectRatio="xMidYMid">
<g transform="rotate(0 50 50)">
  <rect x="43" y="17.5" rx="0" ry="0" width="14" height="11" fill="#a49acc">
    <animate attributeName="opacity" values="1;0" keyTimes="0;1" dur="2.380952380952381s" begin="-2.142857142857143s" repeatCount="indefinite"></animate>
  </rect>
</g><g transform="rotate(36 50 50)">
  <rect x="43" y="17.5" rx="0" ry="0" width="14" height="11" fill="#a49acc">
    <animate attributeName="opacity" values="1;0" keyTimes="0;1" dur="2.380952380952381s" begin="-1.9047619047619047s" repeatCount="indefinite"></animate>
  </rect>
</g><g transform="rotate(72 50 50)">
  <rect x="43" y="17.5" rx="0" ry="0" width="14" height="11" fill="#a49acc">
    <animate attributeName="opacity" values="1;0" keyTimes="0;1" dur="2.380952380952381s" begin="-1.6666666666666665s" repeatCount="indefinite"></animate>
  </rect>
</g><g transform="rotate(108 50 50)">
  <rect x="43" y="17.5" rx="0" ry="0" width="14" height="11" fill="#a49acc">
    <animate attributeName="opacity" values="1;0" keyTimes="0;1" dur="2.380952380952381s" begin="-1.4285714285714286s" repeatCount="indefinite"></animate>
  </rect>
</g><g transform="rotate(144 50 50)">
  <rect x="43" y="17.5" rx="0" ry="0" width="14" height="11" fill="#a49acc">
    <animate attributeName="opacity" values="1;0" keyTimes="0;1" dur="2.380952380952381s" begin="-1.1904761904761905s" repeatCount="indefinite"></animate>
  </rect>
</g><g transform="rotate(180 50 50)">
  <rect x="43" y="17.5" rx="0" ry="0" width="14" height="11" fill="#a49acc">
    <animate attributeName="opacity" values="1;0" keyTimes="0;1" dur="2.380952380952381s" begin="-0.9523809523809523s" repeatCount="indefinite"></animate>
  </rect>
</g><g transform="rotate(216 50 50)">
  <rect x="43" y="17.5" rx="0" ry="0" width="14" height="11" fill="#a49acc">
    <animate attributeName="opacity" values="1;0" keyTimes="0;1" dur="2.380952380952381s" begin="-0.7142857142857143s" repeatCount="indefinite"></animate>
  </rect>
</g><g transform="rotate(252 50 50)">
  <rect x="43" y="17.5" rx="0" ry="0" width="14" height="11" fill="#a49acc">
    <animate attributeName="opacity" values="1;0" keyTimes="0;1" dur="2.380952380952381s" begin="-0.47619047619047616s" repeatCount="indefinite"></animate>
  </rect>
</g><g transform="rotate(288 50 50)">
  <rect x="43" y="17.5" rx="0" ry="0" width="14" height="11" fill="#a49acc">
    <animate attributeName="opacity" values="1;0" keyTimes="0;1" dur="2.380952380952381s" begin="-0.23809523809523808s" repeatCount="indefinite"></animate>
  </rect>
</g><g transform="rotate(324 50 50)">
  <rect x="43" y="17.5" rx="0" ry="0" width="14" height="11" fill="#a49acc">
    <animate attributeName="opacity" values="1;0" keyTimes="0;1" dur="2.380952380952381s" begin="0s" repeatCount="indefinite"></animate>
  </rect>
</g>
<!-- [ldio] generated by https://loading.io/ --></svg>